<svg xmlns="http://www.w3.org/2000/svg" viewBox="0 0 32 32" width="32" height="32" color="#3d4856"><path fill="currentColor" stroke-width="1.7237" d="M5.1627,8.1896 L5.1631,8.1891 Q8.4121,4.9403 13.0068,4.9403 Q17.6019,4.9403 20.851,8.1896 Q21.9565,9.333 20.8362,10.4542 Q19.716,11.5755 18.5754,10.475 Q16.267,8.1663 13.0081,8.1662 Q9.7491,8.166 7.4446,10.4704 Q5.1401,12.7748 5.1401,16.0337 Q5.1401,19.2927 7.4446,21.5971 Q9.7491,23.9015 13.0081,23.9013 Q16.2671,23.9011 18.5713,21.5965 L24.1282,16.0363 L21.6774,13.5839 Q21.3245,13.2279 21.5163,12.7662 Q21.7081,12.3045 22.2081,12.3034 L29.2691,12.3034 Q29.5801,12.3034 29.8001,12.5233 Q30.02,12.7433 30.02,13.0543 L30.02,20.1146 Q30.0209,20.6166 29.5566,20.809 Q29.0923,21.0015 28.7374,20.6457 L26.4095,18.3177 L20.851,23.8762 Q17.5921,27.0792 13.0255,27.0596 Q8.4588,27.0399 5.2295,23.811 Q2.0002,20.5821 1.9801,16.0155 Q1.96,11.4488 5.1607,8.1916 Q5.1617,8.1906 5.1627,8.1896 Z"/></svg>
