<svg xmlns="http://www.w3.org/2000/svg" viewBox="0 0 32 32" width="32" height="32" color="#3d4856"><path fill="none" stroke="currentColor" stroke-width="2.38" stroke-linecap="round" stroke-linejoin="round" d="M3.8222,9.9111 L3.8222,23.3067 C3.8222,25.0116 3.8222,25.864 4.1541,26.5155 C4.4459,27.0883 4.9117,27.5541 5.4845,27.8459 C6.1345,28.1778 6.9869,28.1778 8.6888,28.1778 L23.3112,28.1778 C25.0131,28.1778 25.864,28.1778 26.514,27.8459 C27.0879,27.5537 27.5537,27.0879 27.8459,26.5155 C28.1778,25.864 28.1778,25.0131 28.1778,23.3112 L28.1778,9.9111"/><path fill="none" stroke="currentColor" stroke-width="2.38" stroke-linecap="round" stroke-linejoin="round" d="M3.8222,9.9111 L28.1778,9.9111"/><path fill="none" stroke="currentColor" stroke-width="2.38" stroke-linecap="round" stroke-linejoin="round" d="M3.8222,9.9111 L5.9001,6.273 C6.41,5.3825 6.6657,4.9365 7.0235,4.6107 C7.3416,4.323 7.7176,4.1054 8.124,3.9714 C8.5868,3.8222 9.0982,3.8222 10.1288,3.8222 L21.8712,3.8222 C22.9002,3.8222 23.4163,3.8222 23.8775,3.9729 C24.2839,4.1054 24.6584,4.323 24.975,4.6123 C25.3343,4.9365 25.59,5.3825 26.1015,6.276 L28.1778,9.9111"/><path fill="none" stroke="currentColor" stroke-width="2.38" stroke-linecap="round" stroke-linejoin="round" d="M16,14.4778 L16,23.6111"/><path fill="none" stroke="currentColor" stroke-width="1.76" stroke-linecap="round" stroke-linejoin="round" d="M16,23.6111 L20.5667,20.5667"/><path fill="none" stroke="currentColor" stroke-width="1.76" stroke-linecap="round" stroke-linejoin="round" d="M16,23.6111 L11.4333,20.5667"/></svg>
