<svg xmlns="http://www.w3.org/2000/svg" viewBox="0 0 32 32" width="32" height="32" color="#3d4856"><path fill="none" stroke="currentColor" stroke-width="2.38" stroke-linecap="round" stroke-linejoin="round" d="M7.5633,27.1157 C7.9927,27.9389 8.8443,28.4549 9.7727,28.4545 L24.7182,28.4545 C26.0939,28.4545 27.2091,27.3393 27.2091,25.9636 L27.2091,11.0182 C27.211,10.221 26.8945,9.4561 26.3298,8.8934 L21.8611,4.4248 C21.2984,3.8601 20.5335,3.5435 19.7364,3.5455 L9.7727,3.5455 C8.397,3.5455 7.2818,4.6607 7.2818,6.0364 L7.2818,9.9309"/><path fill="none" stroke="currentColor" stroke-width="2.38" stroke-linecap="round" stroke-linejoin="round" d="M19.7364,3.5455 L19.7364,9.7727 C19.7364,10.4606 20.294,11.0182 20.9818,11.0182 L27.2091,11.0182"/><path fill="none" stroke="currentColor" stroke-width="2.38" stroke-linecap="round" stroke-linejoin="round" d="M8.5273,14.7545 L4.7909,18.4909"/><path fill="none" stroke="currentColor" stroke-width="2.38" stroke-linecap="round" stroke-linejoin="round" d="M8.5273,22.2273 L4.7909,18.4909 L17.2454,18.4909"/></svg>
