<svg xmlns="http://www.w3.org/2000/svg" viewBox="0 0 48 48" width="48" height="48" color="#3d4856" role="img">
<title>문맥 교환</title>
<desc>실행 상태를 저장하고 다른 실행 상태를 복원</desc>
<g stroke-linecap="round" stroke-linejoin="round">
<defs><mask id="cut-76" x="0" y="0" width="48" height="48" maskUnits="userSpaceOnUse"><rect width="48" height="48" fill="white"/><rect x="8" y="11" width="9" height="2.7" rx="1.3" fill="black"/><rect x="8" y="17" width="9" height="2.7" rx="1.3" fill="black"/></mask></defs><g mask="url(#cut-76)"><rect x="4" y="5" width="17" height="25" rx="4" fill="#639bfa"/></g><defs><mask id="cut-77" x="0" y="0" width="48" height="48" maskUnits="userSpaceOnUse"><rect width="48" height="48" fill="white"/><rect x="31" y="24" width="9" height="2.7" rx="1.3" fill="black"/><rect x="31" y="30" width="9" height="2.7" rx="1.3" fill="black"/></mask></defs><g mask="url(#cut-77)"><rect x="27" y="18" width="17" height="25" rx="4" fill="#a5a7a9"/></g><path d="M26 10L40 10M36.40 6.40L40 10L36.40 13.60" fill="none" stroke="#ffbf00" stroke-width="2.6"/><path d="M21 38L7 38M10.60 41.60L7 38L10.60 34.40" fill="none" stroke="#28a779" stroke-width="2.6"/>
</g>
</svg>
