<svg xmlns="http://www.w3.org/2000/svg" viewBox="0 0 48 48" width="48" height="48" color="#3d4856" role="img"><title>영상</title><desc>영상 · detail</desc><g stroke-linecap="round" stroke-linejoin="round"><defs><mask id="shape-26" x="0" y="0" width="48" height="48" maskUnits="userSpaceOnUse"><rect width="48" height="48" fill="white"/><path d="M19 17Q19 15 21 16L31 22Q34 24 31 26L21 32Q19 33 19 31Z" fill="black" stroke="none" stroke-width="0"/><circle cx="8" cy="12" r="1.3" fill="black" stroke="none" stroke-width="2.8"/><circle cx="8" cy="36" r="1.3" fill="black" stroke="none" stroke-width="2.8"/><circle cx="16" cy="12" r="1.3" fill="black" stroke="none" stroke-width="2.8"/><circle cx="16" cy="36" r="1.3" fill="black" stroke="none" stroke-width="2.8"/><circle cx="24" cy="12" r="1.3" fill="black" stroke="none" stroke-width="2.8"/><circle cx="24" cy="36" r="1.3" fill="black" stroke="none" stroke-width="2.8"/><circle cx="32" cy="12" r="1.3" fill="black" stroke="none" stroke-width="2.8"/><circle cx="32" cy="36" r="1.3" fill="black" stroke="none" stroke-width="2.8"/><circle cx="40" cy="12" r="1.3" fill="black" stroke="none" stroke-width="2.8"/><circle cx="40" cy="36" r="1.3" fill="black" stroke="none" stroke-width="2.8"/></mask></defs><g mask="url(#shape-26)"><rect x="3" y="8" width="42" height="32" rx="6" fill="#3d4856" stroke="none" stroke-width="2.8"/></g></g></svg>
